<svg width="23" height="33" viewBox="0 0 23 33" fill="none" xmlns="http://www.w3.org/2000/svg">
<path d="M7.24998 30.6666H15.75M7.24998 2.33331H15.75M1.58331 9.41665C1.58331 8.6652 1.88182 7.94453 2.41318 7.41318C2.94453 6.88182 3.6652 6.58331 4.41665 6.58331H18.5833C19.3348 6.58331 20.0554 6.88182 20.5868 7.41318C21.1181 7.94453 21.4166 8.6652 21.4166 9.41665V23.5833C21.4166 24.3348 21.1181 25.0554 20.5868 25.5868C20.0554 26.1181 19.3348 26.4166 18.5833 26.4166H4.41665C3.6652 26.4166 2.94453 26.1181 2.41318 25.5868C1.88182 25.0554 1.58331 24.3348 1.58331 23.5833V9.41665Z" stroke="black" stroke-width="3" stroke-linecap="round" stroke-linejoin="round"/>
</svg>
